<svg xmlns:dc="http://purl.org/dc/elements/1.1/" xmlns:cc="http://creativecommons.org/ns#" xmlns:rdf="http://www.w3.org/1999/02/22-rdf-syntax-ns#" xmlns:svg="http://www.w3.org/2000/svg" xmlns="http://www.w3.org/2000/svg" xmlns:xlink="http://www.w3.org/1999/xlink" id="svg67217" viewBox="0 0 1024 768" height="768px" width="1024px" version="1.1">
  <metadata id="metadata67223">
    <rdf:rdf>
      <cc:work rdf:about="">
        <dc:format>image/svg+xml</dc:format>
        <dc:type rdf:resource="http://purl.org/dc/dcmitype/StillImage"></dc:type>
      </cc:work>
    </rdf:rdf>
  </metadata>
  <defs id="defs67221"></defs>
  <linearGradient spreadMethod="pad" y2="30%" x2="-10%" y1="120%" x1="30%" id="3d_gradient2-logo-9f6ed41c-e6a0-4a9e-9f3c-3b71c1b602b9">
    <stop id="stop67198" stop-opacity="1" stop-color="#ffffff" offset="0%"></stop>
    <stop id="stop67200" stop-opacity="1" stop-color="#000000" offset="100%"></stop>
  </linearGradient>
  <linearGradient gradientTransform="rotate(-30)" spreadMethod="pad" y2="30%" x2="-10%" y1="120%" x1="30%" id="3d_gradient3-logo-9f6ed41c-e6a0-4a9e-9f3c-3b71c1b602b9">
    <stop id="stop67203" stop-opacity="1" stop-color="#ffffff" offset="0%"></stop>
    <stop id="stop67205" stop-opacity="1" stop-color="#cccccc" offset="50%"></stop>
    <stop id="stop67207" stop-opacity="1" stop-color="#000000" offset="100%"></stop>
  </linearGradient>
  <g id="logo-group">
    <image xlink:href="" id="container" x="272" y="144" width="480" height="480" style="display: none;" transform="translate(0 0)"></image>
    <g id="logo-center" transform="translate(0 0)">
      <image xlink:href="" id="icon_container" x="0" y="0" style="display: none;"></image>
      <g id="slogan" style="font-style:normal;font-weight:400;font-size:32px;line-height:1;font-family:Montserrat;font-variant-ligatures:none;text-align:center;text-anchor:middle" transform="translate(0 0)"></g>
      <g id="title" style="font-style:normal;font-weight:700;font-size:72px;line-height:1;font-family:'Brandmark1 Bold';font-variant-ligatures:normal;text-align:center;text-anchor:middle" transform="translate(0 0)">
        <path id="path67226" style="font-style:normal;font-weight:700;font-size:72px;line-height:1;font-family:'Brandmark1 Bold';font-variant-ligatures:normal;text-align:center;text-anchor:middle" d="m 374.93563,-32.112 c -3.81601,-3.816 -8.928,-5.904 -14.25601,-5.904 -5.4,0 -10.512,2.088 -14.32799,5.904 -3.81601,3.816 -5.904,8.856 -5.904,14.256 0,5.4 2.08799,10.44 5.904,14.256 3.81599,3.816 8.92799,5.904 14.32799,5.904 3.168,0 6.264,-0.72 9,-2.088 -1.08,3.96 -4.752,6.84 -9,6.84 -2.448,0 -4.752,-0.936 -6.47999,-2.592 l -7.488,7.848 c 3.81599,3.6 8.712,5.544 13.89599,5.544 5.40001,0 10.512,-2.088 14.32801,-5.904 3.81599,-3.816 5.90399,-8.856 5.90399,-14.256 v -15.552 c 0,-5.4 -2.088,-10.44 -5.90399,-14.256 z m -14.25601,23.616 c -5.18399,0 -9.432,-4.176 -9.432,-9.36 0,-5.184 4.24801,-9.432 9.432,-9.432 5.18401,0 9.36,4.248 9.36,9.432 0,5.184 -4.248,9.36 -9.36,9.36 z" stroke-width="0" stroke-linejoin="miter" stroke-miterlimit="2" fill="#78c79a" stroke="#78c79a" transform="translate(0 307.10656) translate(252.66738880000003 47.72768) scale(1.52) translate(-340.44763 38.016)"></path>
        <path id="path67228" style="font-style:normal;font-weight:700;font-size:72px;line-height:1;font-family:'Brandmark1 Bold';font-variant-ligatures:normal;text-align:center;text-anchor:middle" d="m 396.9395,2.52 v 0 -17.712 c 0,-6.912 5.616,-12.6 12.6,-12.6 v -10.8 c -3.168,0 -6.264,0.648 -9.144,1.872 -2.736,1.152 -5.256,2.88 -7.416,5.04 -2.16,2.088 -3.816,4.608 -5.04,7.416 -1.224,2.88 -1.8,5.904 -1.8,9.072 V 2.52 Z" stroke-width="0" stroke-linejoin="miter" stroke-miterlimit="2" fill="#78c79a" stroke="#78c79a" transform="translate(0 307.10656) translate(322.1190312 46.852160000000005) scale(1.52) translate(-386.1395 38.592)"></path>
<path id="path67230" style="font-style:normal;font-weight:700;font-size:72px;line-height:1;font-family:'Brandmark1 Bold';font-variant-ligatures:normal;text-align:center;text-anchor:middle" d="m 427.53163,2.808 c 2.80799,0 5.54399,-0.576 8.13599,-1.728 2.52001,-1.08 4.752,-2.664 6.624,-4.608 l -7.632,-7.2 c -1.872,2.016 -4.392,3.096 -7.12799,3.096 -3.52801,0 -6.62401,-1.872 -8.35201,-4.608 h 28.584 v -5.256 c 0,-5.4 -2.08799,-10.512 -5.904,-14.328 -3.81599,-3.816 -8.928,-5.976 -14.32799,-5.976 -5.47201,0 -10.512,2.16 -14.40001,5.976 -3.816,3.816 -5.904,8.928 -5.904,14.328 0,5.4 2.088,10.512 5.904,14.328 3.88801,3.816 8.928,5.976 14.40001,5.976 z m -8.35201,-25.488 c 1.728,-2.808 4.824,-4.68 8.35201,-4.68 3.45599,0 6.55199,1.872 8.35199,4.68 z" stroke-width="0" stroke-linejoin="miter" stroke-miterlimit="2" fill="#78c79a" stroke="#78c79a" transform="translate(0 307.10656) translate(354.17297360000003 48.056000000000004) scale(1.52) translate(-407.22762 37.8)"></path>
        <path id="path67232" style="font-style:normal;font-weight:700;font-size:72px;line-height:1;font-family:'Brandmark1 Bold';font-variant-ligatures:normal;text-align:center;text-anchor:middle" d="m 467.3285,2.808 c 2.808,0 5.544,-0.576 8.136,-1.728 2.52,-1.08 4.752,-2.664 6.624,-4.608 l -7.632,-7.2 c -1.872,2.016 -4.392,3.096 -7.128,3.096 -3.528,0 -6.624,-1.872 -8.352,-4.608 h 28.584 v -5.256 c 0,-5.4 -2.088,-10.512 -5.904,-14.328 -3.816,-3.816 -8.928,-5.976 -14.328,-5.976 -5.472,0 -10.512,2.16 -14.4,5.976 -3.816,3.816 -5.904,8.928 -5.904,14.328 0,5.4 2.088,10.512 5.904,14.328 3.888,3.816 8.928,5.976 14.4,5.976 z m -8.352,-25.488 c 1.728,-2.808 4.824,-4.68 8.352,-4.68 3.456,0 6.552,1.872 8.352,4.68 z" stroke-width="0" stroke-linejoin="miter" stroke-miterlimit="2" fill="#78c79a" stroke="#78c79a" transform="translate(0 307.10656) translate(414.6642312 48.056000000000004) scale(1.52) translate(-447.0245 37.8)"></path>
        <path id="path67234" style="font-style:normal;font-weight:700;font-size:72px;line-height:1;font-family:'Brandmark1 Bold';font-variant-ligatures:normal;text-align:center;text-anchor:middle" d="m 521.02138,-31.608 c -3.456,-3.384 -7.99201,-5.256 -12.81601,-5.256 -2.59199,0 -5.04,0.504 -7.272,1.512 v -2.664 h -10.8 v 17.64 c -0.072,0.576 -0.072,1.08 -0.072,1.656 h 0.072 V 2.52 h 10.8 V -19.8 c 0.504,-3.528 3.528,-6.264 7.272,-6.264 4.03201,0 7.34401,3.312 7.34401,7.344 V 2.52 h 10.79999 v -21.24 c 0,-4.896 -1.94399,-9.432 -5.32799,-12.888 z" stroke-width="0" stroke-linejoin="miter" stroke-miterlimit="2" fill="#78c79a" stroke="#78c79a" transform="translate(0 307.10656) translate(480.08027360000006 47.72768) scale(1.52) translate(-490.06137 38.016)"></path>
        <path id="path67236" style="font-style:normal;font-weight:700;font-size:72px;line-height:1;font-family:'Brandmark1 Bold';font-variant-ligatures:normal;text-align:center;text-anchor:middle" d="m 570.71375,-25.416 c -1.08,-2.448 -2.52,-4.608 -4.392,-6.552 -1.944,-1.872 -4.104,-3.312 -6.552,-4.392 -2.52,-1.08 -5.184,-1.584 -7.992,-1.584 -2.736,0 -5.472,0.504 -7.992,1.584 -2.448,1.08 -4.608,2.52 -6.552,4.392 -1.872,1.872 -3.312,4.104 -4.392,6.552 -1.008,2.52 -1.584,5.184 -1.584,7.992 v 30.6 l 10.8,3.6 V 0.648 c 0.576,0.288 1.152,0.576 1.728,0.792 2.52,1.08 5.256,1.656 7.992,1.656 2.736,0 5.472,-0.576 7.992,-1.656 2.448,-1.008 4.608,-2.448 6.552,-4.392 1.872,-1.872 3.312,-4.032 4.392,-6.48 1.08,-2.52 1.584,-5.256 1.584,-7.992 0,-2.808 -0.504,-5.472 -1.584,-7.992 z m -18.936,17.712 c -5.328,0 -9.72,-4.392 -9.72,-9.72 0,-5.328 4.392,-9.72 9.72,-9.72 5.328,0 9.72,4.392 9.72,9.72 0,5.328 -4.392,9.72 -9.72,9.72 z" stroke-width="0" stroke-linejoin="miter" stroke-miterlimit="2" fill="#faf8ec" stroke="#faf8ec" transform="translate(0 307.10656) translate(542.6987712 47.83712) scale(1.52) translate(-531.25775 37.944)"></path>
<path id="path67238" style="font-style:normal;font-weight:700;font-size:72px;line-height:1;font-family:'Brandmark1 Bold';font-variant-ligatures:normal;text-align:center;text-anchor:middle" d="m 603.062,-38.016 0.072,2.304 c -2.88,-1.44 -6.048,-2.232 -9.288,-2.232 -2.736,0 -5.472,0.504 -7.992,1.584 -2.448,1.08 -4.608,2.52 -6.552,4.392 -1.872,1.872 -3.312,4.104 -4.392,6.552 -1.008,2.52 -1.584,5.256 -1.584,7.992 0,2.736 0.576,5.472 1.584,7.992 1.08,2.448 2.52,4.608 4.392,6.552 1.944,1.872 4.104,3.312 6.552,4.392 2.52,1.008 5.256,1.584 7.992,1.584 3.24,0 6.408,-0.792 9.288,-2.232 l -0.072,1.656 h 10.8 v -40.536 z m -4.32,28.944 c -1.44,0.864 -3.168,1.368 -4.896,1.368 -5.328,0 -9.72,-4.392 -9.72,-9.72 0,-5.328 4.392,-9.72 9.72,-9.72 1.872,0 3.744,0.504 5.256,1.584 1.584,0.936 2.808,2.376 3.528,4.032 0.648,1.296 0.936,2.664 0.936,4.104 0,1.728 -0.432,3.384 -1.296,4.896 -0.864,1.44 -2.016,2.664 -3.528,3.456 z" stroke-width="0" stroke-linejoin="miter" stroke-miterlimit="2" fill="#faf8ec" stroke="#faf8ec" transform="translate(0 307.10656) translate(606.6425112000002 47.72768) scale(1.52) translate(-573.326 38.016)"></path>
        <path id="path67240" style="font-style:normal;font-weight:700;font-size:72px;line-height:1;font-family:'Brandmark1 Bold';font-variant-ligatures:normal;text-align:center;text-anchor:middle" d="m 642.19512,-27.504 v -10.08 h -11.448 v -12.888 l -10.79999,3.6 v 27.936 c 0,3.024 0.576,5.904 1.72799,8.64 1.08001,2.664 2.736,5.04 4.75201,7.056 2.01599,2.088 4.39199,3.672 7.05599,4.824 2.736,1.152 5.688,1.728 8.712,1.728 v -10.8 c -6.336,0 -11.448,-5.112 -11.448,-11.448 v -8.568 z" stroke-width="0" stroke-linejoin="miter" stroke-miterlimit="2" fill="#faf8ec" stroke="#faf8ec" transform="translate(0 307.10656) translate(677.5066288000002 28.794560000000004) scale(1.52) translate(-619.94713 50.472)"></path>
        <path id="path67242" style="font-style:normal;font-weight:700;font-size:72px;line-height:1;font-family:'Brandmark1 Bold';font-variant-ligatures:normal;text-align:center;text-anchor:middle" d="m 676.27475,-31.968 c -3.456,-3.456 -7.992,-5.328 -12.888,-5.328 -2.592,0 -5.112,0.504 -7.416,1.584 v -19.8 l -10.8,3.6 v 31.248 c -0.072,0.576 -0.072,1.08 -0.072,1.656 h 0.072 V 2.52 h 10.8 v -22.608 c 0.504,-3.6 3.6,-6.408 7.416,-6.408 4.104,0 7.488,3.312 7.488,7.488 V 2.52 h 10.8 v -21.528 c 0,-4.896 -1.944,-9.504 -5.4,-12.96 z" stroke-width="0" stroke-linejoin="miter" stroke-miterlimit="2" fill="#faf8ec" stroke="#faf8ec" transform="translate(0 307.10656) translate(715.7370912000001 21.133759999999995) scale(1.52) translate(-645.09875 55.512)"></path>
      </g>
      <image xlink:href="" id="icon" x="0" y="0" style="display: none;"></image>
    </g>
  </g>
</svg>
